<?xml version="1.0" standalone="no"?>
<!DOCTYPE svg PUBLIC "-//W3C//DTD SVG 20010904//EN"
 "http://www.w3.org/TR/2001/REC-SVG-20010904/DTD/svg10.dtd">
<svg version="1.0" xmlns="http://www.w3.org/2000/svg"
 width="287.000000pt" height="287.000000pt" viewBox="0 0 287.000000 287.000000"
 preserveAspectRatio="xMidYMid meet">
<metadata>
Created by potrace 1.11, written by Peter Selinger 2001-2013
</metadata>
<g transform="translate(0.000000,287.000000) scale(0.100000,-0.100000)"
fill="#000000" stroke="none">
<path d="M1595 2709 c-11 -16 4 -59 20 -59 17 0 21 35 5 45 -6 4 -8 11 -5 16
4 5 2 9 -4 9 -5 0 -13 -5 -16 -11z"/>
<path d="M1530 2690 c0 -11 2 -20 4 -20 2 0 6 9 9 20 3 11 1 20 -4 20 -5 0 -9
-9 -9 -20z"/>
<path d="M1349 2664 c-6 -7 -17 -10 -24 -8 -8 3 -24 -4 -36 -15 l-22 -21 33
10 c23 7 38 6 47 -1 9 -8 13 -8 13 -1 0 6 -6 12 -12 15 -7 2 7 9 32 14 l45 9
-33 5 c-20 4 -36 1 -43 -7z"/>
<path d="M1526 2635 c-3 -9 0 -15 9 -15 16 0 20 16 6 24 -5 3 -11 -1 -15 -9z"/>
<path d="M594 1748 c-23 -71 -26 -155 -5 -198 22 -46 41 -50 42 -8 1 46 6 68
30 139 21 61 21 61 2 88 -33 43 -49 38 -69 -21z"/>
<path d="M1350 1738 c-98 -27 -119 -35 -162 -62 -27 -16 -48 -34 -48 -40 0 -6
15 -20 33 -31 l32 -19 -32 -4 c-18 -2 -33 -7 -33 -12 0 -5 -8 -10 -17 -13 -40
-9 45 -31 132 -34 50 -2 95 -4 102 -5 15 -2 24 -36 12 -44 -5 -3 -9 0 -9 7 0
10 -3 10 -12 1 -7 -7 -32 -12 -57 -12 -43 -1 -45 -2 -27 -15 11 -8 14 -15 8
-15 -31 0 -7 -20 41 -33 79 -24 156 -28 264 -16 120 13 162 34 163 80 0 9 9
26 20 39 25 29 28 95 4 86 -17 -6 -74 43 -74 63 0 18 -84 60 -150 75 -73 17
-138 19 -190 4z"/>
<path d="M707 1609 c-10 -6 -17 -22 -17 -39 0 -16 -4 -39 -9 -52 -20 -54 -22
-78 -7 -78 17 0 36 30 36 57 0 10 7 31 15 47 26 50 17 84 -18 65z"/>
<path d="M1948 1570 c-16 -12 -28 -19 -28 -15 0 4 -15 -10 -34 -29 -18 -20
-40 -36 -49 -36 -14 0 -14 -3 -1 -27 7 -16 14 -38 14 -50 0 -14 6 -23 15 -23
8 0 15 -7 15 -16 0 -11 5 -14 16 -10 10 4 14 1 12 -6 -7 -20 32 -57 89 -84
123 -61 195 -48 123 21 l-31 29 37 13 c41 14 66 6 97 -34 25 -32 47 -30 47 5
0 43 11 72 27 72 26 0 4 71 -36 113 -49 51 -124 84 -213 92 -66 6 -76 5 -100
-15z"/>
<path d="M710 1265 c-7 -8 -21 -15 -32 -15 -10 0 -16 -4 -13 -10 9 -14 38 -12
61 4 14 11 16 18 8 26 -8 8 -14 7 -24 -5z"/>
<path d="M1449 1190 c-36 -10 -84 -27 -107 -39 -22 -11 -60 -23 -84 -27 -23
-4 -47 -10 -53 -14 -18 -14 -109 -21 -135 -12 -27 10 -70 -10 -70 -32 0 -6 -9
-20 -21 -29 -11 -10 -18 -25 -15 -33 8 -20 -7 -24 -89 -27 -48 -2 -79 -9 -99
-22 -26 -17 -29 -17 -38 -2 -5 9 -13 17 -18 17 -15 0 -73 43 -113 82 -26 26
-48 38 -79 43 -47 7 -103 -9 -93 -25 4 -6 -13 -32 -37 -58 -23 -26 -67 -83
-96 -127 -29 -44 -71 -93 -93 -110 -22 -16 -42 -40 -45 -52 -4 -13 -10 -20
-15 -17 -5 3 -9 -2 -9 -11 0 -9 -5 -13 -10 -10 -6 3 -10 1 -10 -4 0 -6 -9 -20
-20 -31 -31 -31 -25 -43 18 -35 58 10 25 -16 -51 -40 l-62 -20 -3 -277 -3
-278 729 0 c703 0 730 1 735 19 2 10 0 26 -5 36 -12 21 12 45 122 117 41 27
102 75 136 106 34 31 100 93 148 137 49 45 89 91 93 105 3 14 17 38 32 54 14
16 20 26 13 22 -18 -11 -3 46 16 60 8 6 12 16 8 22 -4 8 0 12 12 12 11 0 22 8
26 18 3 9 17 32 31 51 25 33 33 85 16 95 -4 3 -11 18 -14 33 -3 16 -20 44 -37
63 -17 19 -41 56 -52 83 -11 26 -24 47 -29 47 -5 0 -9 4 -9 10 0 16 -33 50
-48 50 -10 0 -12 -6 -7 -17 14 -33 17 -110 7 -130 -6 -11 -38 -30 -72 -42 -62
-23 -62 -23 -76 -3 -8 11 -29 24 -47 27 -17 4 -43 13 -57 20 -14 7 -54 23 -90
35 -83 29 -90 35 -90 81 0 42 26 78 58 80 14 0 14 2 -3 9 -25 11 -18 11 -96
-10z m-522 -236 c-3 -3 -12 -4 -19 -1 -8 3 -5 6 6 6 11 1 17 -2 13 -5z m497
-119 c11 -8 30 -15 42 -15 13 0 25 -4 28 -9 3 -5 22 -9 42 -8 25 1 41 -5 50
-18 11 -14 24 -19 53 -16 21 1 42 -2 46 -8 3 -6 24 -11 46 -11 21 0 39 -3 39
-7 -1 -22 -19 -32 -53 -30 -20 2 -42 0 -48 -3 -16 -10 -127 15 -148 34 -10 9
-25 16 -34 16 -9 0 -24 11 -33 26 -12 17 -20 22 -27 15 -18 -18 -44 -12 -50
11 -11 39 12 50 47 23z m-179 -42 c11 -14 39 -47 62 -71 40 -44 42 -45 65 -30
20 13 31 14 69 4 62 -16 88 -33 70 -45 -10 -7 -5 -13 23 -26 36 -17 44 -35 9
-20 -10 5 -23 9 -30 11 -29 6 -120 36 -137 45 -13 7 -16 7 -11 0 3 -7 -2 -11
-13 -11 -54 0 -21 -105 46 -150 20 -14 40 -29 43 -34 10 -13 91 -26 129 -19
49 9 92 28 113 51 15 17 16 23 6 40 -10 17 -10 23 5 38 18 17 16 19 -35 37
-30 11 -60 21 -68 23 -8 3 -12 7 -9 10 3 2 17 0 31 -5 19 -8 34 -6 57 5 18 9
50 15 78 13 26 -1 58 2 72 8 34 14 47 2 52 -50 3 -28 -1 -54 -14 -79 -10 -21
-18 -44 -18 -53 0 -8 -10 -20 -22 -26 -13 -6 -31 -27 -40 -48 -23 -48 -56 -83
-71 -74 -19 12 -66 13 -72 2 -5 -6 -16 -4 -32 6 -13 9 -31 14 -39 11 -17 -7
-84 21 -84 35 0 6 -8 8 -19 4 -10 -3 -24 1 -31 10 -9 11 -22 14 -38 10 -17 -4
-31 0 -47 15 -12 12 -35 24 -51 29 -16 4 -33 17 -39 29 -5 12 -18 22 -27 22
-13 0 -18 8 -18 29 0 17 -4 32 -9 35 -5 3 -9 16 -10 28 -2 35 -7 61 -15 79
-17 37 4 136 27 122 4 -2 7 1 7 6 0 19 14 12 35 -16z"/>
<path d="M1305 650 c3 -5 8 -10 11 -10 2 0 4 5 4 10 0 6 -5 10 -11 10 -5 0 -7
-4 -4 -10z"/>
<path d="M2778 798 c-4 -45 9 -81 31 -86 9 -2 12 9 8 45 -9 89 -32 113 -39 41z"/>
<path d="M2832 718 c-15 -15 -15 -80 1 -141 20 -76 32 -57 32 50 0 95 -8 116
-33 91z"/>
<path d="M2038 612 c-10 -2 -18 -10 -18 -18 0 -18 8 -18 27 1 18 18 15 23 -9
17z"/>
<path d="M2486 160 c-7 -36 -6 -175 1 -148 5 20 4 20 98 8 56 -7 74 -6 93 6
32 21 29 60 -5 68 -14 4 -29 4 -32 -1 -3 -4 -16 -8 -28 -9 -18 0 -20 2 -12 13
14 16 -13 62 -36 64 -8 1 -24 2 -35 3 -12 0 -24 7 -29 14 -6 10 -10 4 -15 -18z"/>
<path d="M1661 153 c-10 -19 -61 -144 -61 -150 0 -2 49 -3 110 -3 96 0 109 2
103 16 -4 12 -8 13 -13 3 -6 -8 -14 -1 -26 22 -9 19 -19 28 -21 21 -6 -17 -23
-4 -23 18 0 22 -38 90 -51 90 -4 0 -12 -8 -18 -17z"/>
</g>
</svg>
